# xmcd
#
# Track frame offsets: 
#        150
#        13574
#        25823
#        43411
#        54425
#        75915
#        82939
#        94757
#        111840
#        125020
#        135418
#        147004
#        171985
#        211647
#        240995
#        265021
#        274937
#        292612
#
# Disc length: 4159 seconds
#
# Revision: 0
# Processed by: cddbd v1.5.2PL0 Copyright (c) Steve Scherf et al.
# Submitted via: ExactAudioCopy v0.99pb5
#
DISCID=e4103d12
DTITLE=Henri and Kasperi - Outo Nauha
DYEAR=2009
DGENRE=Rap
TTITLE0=Meitsi On Matafaka
TTITLE1=Alussa
TTITLE2=Tuotantotehdas
TTITLE3=Lauantaiaamu
TTITLE4=Menestys
TTITLE5=Turva
TTITLE6=Jos Olisit, Kuka Olisit?
TTITLE7=Menestys 2
TTITLE8=Kohtaus Kadulla
TTITLE9=Tuotantotehdas 2
TTITLE10=Luuppi
TTITLE11=Sunnuntaiaamu
TTITLE12=Kansalainen
TTITLE13=Megaturbo
TTITLE14=Valioyksilö
TTITLE15=Luupin Loppu
TTITLE16=Laitisen Apteekki
TTITLE17=Lähtö
EXTD=
EXTT0=
EXTT1=
EXTT2=
EXTT3=
EXTT4=
EXTT5=
EXTT6=
EXTT7=
EXTT8=
EXTT9=
EXTT10=
EXTT11=
EXTT12=
EXTT13=
EXTT14=
EXTT15=
EXTT16=
EXTT17=
PLAYORDER=
